<?xml version="1.0"?>
<svg version="1.1"
     xmlns="http://www.w3.org/2000/svg"
     xmlns:xlink="http://www.w3.org/1999/xlink"
     viewBox="0 0 800 600">
<g>
<text fill="#000000" font-family="sans-serif" font-size="19.0476" text-anchor="start" x="4.7619" y="591.429" >
NIST Chemistry WebBook (https://webbook.nist.gov/chemistry)
</text>
<polyline stroke="#000000" stroke-width="1.19048" fill="none" points="95.2381,514.286
742.857,514.286
742.857,66.6667
95.2381,66.6667
95.2381,514.286" />
<text fill="#000000" font-family="sans-serif" font-size="19.0476" text-anchor="middle" x="419.048" y="24.7619" >
Anthracene
</text>
<text fill="#000000" font-family="sans-serif" font-size="19.0476" text-anchor="middle" x="419.048" y="53.3333" >
INFRARED SPECTRUM
</text>
<text fill="#000000" font-family="sans-serif" font-size="19.0476" text-anchor="middle" x="419.048" y="558.095" >
Wavenumber (cm-1)
</text>
<text fill="#000000" font-family="sans-serif" font-size="19.0476" text-anchor="middle" transform="translate(20,290.476) rotate(270)" x="0" y="0" >
Transmitance
</text>
<text fill="#000000" font-family="sans-serif" font-size="19.0476" text-anchor="middle" x="611.954" y="534.286" >
1000
</text>
<line stroke="#000000" stroke-width="1.19048" x1="611.954" y1="514.286" x2="611.954" y2="504.762" />
<text fill="#000000" font-family="sans-serif" font-size="19.0476" text-anchor="middle" x="439.485" y="534.286" >
2000
</text>
<line stroke="#000000" stroke-width="1.19048" x1="439.485" y1="514.286" x2="439.485" y2="504.762" />
<text fill="#000000" font-family="sans-serif" font-size="19.0476" text-anchor="middle" x="267.017" y="534.286" >
3000
</text>
<line stroke="#000000" stroke-width="1.19048" x1="267.017" y1="514.286" x2="267.017" y2="504.762" />
<line stroke="#000000" stroke-width="1.19048" x1="732.682" y1="514.286" x2="732.682" y2="509.524" />
<line stroke="#000000" stroke-width="1.19048" x1="715.435" y1="514.286" x2="715.435" y2="509.524" />
<line stroke="#000000" stroke-width="1.19048" x1="698.188" y1="514.286" x2="698.188" y2="509.524" />
<line stroke="#000000" stroke-width="1.19048" x1="680.941" y1="514.286" x2="680.941" y2="509.524" />
<line stroke="#000000" stroke-width="1.19048" x1="663.694" y1="514.286" x2="663.694" y2="509.524" />
<line stroke="#000000" stroke-width="1.19048" x1="646.447" y1="514.286" x2="646.447" y2="509.524" />
<line stroke="#000000" stroke-width="1.19048" x1="629.2" y1="514.286" x2="629.2" y2="509.524" />
<line stroke="#000000" stroke-width="1.19048" x1="611.954" y1="514.286" x2="611.954" y2="509.524" />
<line stroke="#000000" stroke-width="1.19048" x1="594.707" y1="514.286" x2="594.707" y2="509.524" />
<line stroke="#000000" stroke-width="1.19048" x1="577.46" y1="514.286" x2="577.46" y2="509.524" />
<line stroke="#000000" stroke-width="1.19048" x1="560.213" y1="514.286" x2="560.213" y2="509.524" />
<line stroke="#000000" stroke-width="1.19048" x1="542.966" y1="514.286" x2="542.966" y2="509.524" />
<line stroke="#000000" stroke-width="1.19048" x1="525.719" y1="514.286" x2="525.719" y2="509.524" />
<line stroke="#000000" stroke-width="1.19048" x1="508.473" y1="514.286" x2="508.473" y2="509.524" />
<line stroke="#000000" stroke-width="1.19048" x1="491.226" y1="514.286" x2="491.226" y2="509.524" />
<line stroke="#000000" stroke-width="1.19048" x1="473.979" y1="514.286" x2="473.979" y2="509.524" />
<line stroke="#000000" stroke-width="1.19048" x1="456.732" y1="514.286" x2="456.732" y2="509.524" />
<line stroke="#000000" stroke-width="1.19048" x1="439.485" y1="514.286" x2="439.485" y2="509.524" />
<line stroke="#000000" stroke-width="1.19048" x1="422.238" y1="514.286" x2="422.238" y2="509.524" />
<line stroke="#000000" stroke-width="1.19048" x1="404.991" y1="514.286" x2="404.991" y2="509.524" />
<line stroke="#000000" stroke-width="1.19048" x1="387.745" y1="514.286" x2="387.745" y2="509.524" />
<line stroke="#000000" stroke-width="1.19048" x1="370.498" y1="514.286" x2="370.498" y2="509.524" />
<line stroke="#000000" stroke-width="1.19048" x1="353.251" y1="514.286" x2="353.251" y2="509.524" />
<line stroke="#000000" stroke-width="1.19048" x1="336.004" y1="514.286" x2="336.004" y2="509.524" />
<line stroke="#000000" stroke-width="1.19048" x1="318.757" y1="514.286" x2="318.757" y2="509.524" />
<line stroke="#000000" stroke-width="1.19048" x1="301.51" y1="514.286" x2="301.51" y2="509.524" />
<line stroke="#000000" stroke-width="1.19048" x1="284.264" y1="514.286" x2="284.264" y2="509.524" />
<line stroke="#000000" stroke-width="1.19048" x1="267.017" y1="514.286" x2="267.017" y2="509.524" />
<line stroke="#000000" stroke-width="1.19048" x1="249.77" y1="514.286" x2="249.77" y2="509.524" />
<line stroke="#000000" stroke-width="1.19048" x1="232.523" y1="514.286" x2="232.523" y2="509.524" />
<line stroke="#000000" stroke-width="1.19048" x1="215.276" y1="514.286" x2="215.276" y2="509.524" />
<line stroke="#000000" stroke-width="1.19048" x1="198.029" y1="514.286" x2="198.029" y2="509.524" />
<line stroke="#000000" stroke-width="1.19048" x1="180.782" y1="514.286" x2="180.782" y2="509.524" />
<line stroke="#000000" stroke-width="1.19048" x1="163.536" y1="514.286" x2="163.536" y2="509.524" />
<line stroke="#000000" stroke-width="1.19048" x1="146.289" y1="514.286" x2="146.289" y2="509.524" />
<line stroke="#000000" stroke-width="1.19048" x1="129.042" y1="514.286" x2="129.042" y2="509.524" />
<line stroke="#000000" stroke-width="1.19048" x1="111.795" y1="514.286" x2="111.795" y2="509.524" />
<text fill="#000000" font-family="sans-serif" font-size="19.0476" text-anchor="end" x="90.4762" y="438.437" >
0.2
</text>
<line stroke="#000000" stroke-width="1.19048" x1="95.2381" y1="434.151" x2="104.762" y2="434.151" />
<text fill="#000000" font-family="sans-serif" font-size="19.0476" text-anchor="end" x="90.4762" y="338.766" >
0.4
</text>
<line stroke="#000000" stroke-width="1.19048" x1="95.2381" y1="334.481" x2="104.762" y2="334.481" />
<text fill="#000000" font-family="sans-serif" font-size="19.0476" text-anchor="end" x="90.4762" y="239.096" >
0.6
</text>
<line stroke="#000000" stroke-width="1.19048" x1="95.2381" y1="234.81" x2="104.762" y2="234.81" />
<text fill="#000000" font-family="sans-serif" font-size="19.0476" text-anchor="end" x="90.4762" y="139.426" >
0.8
</text>
<line stroke="#000000" stroke-width="1.19048" x1="95.2381" y1="135.14" x2="104.762" y2="135.14" />
<line stroke="#000000" stroke-width="1.19048" x1="95.2381" y1="508.904" x2="100" y2="508.904" />
<line stroke="#000000" stroke-width="1.19048" x1="95.2381" y1="483.986" x2="100" y2="483.986" />
<line stroke="#000000" stroke-width="1.19048" x1="95.2381" y1="459.068" x2="100" y2="459.068" />
<line stroke="#000000" stroke-width="1.19048" x1="95.2381" y1="434.151" x2="100" y2="434.151" />
<line stroke="#000000" stroke-width="1.19048" x1="95.2381" y1="409.233" x2="100" y2="409.233" />
<line stroke="#000000" stroke-width="1.19048" x1="95.2381" y1="384.316" x2="100" y2="384.316" />
<line stroke="#000000" stroke-width="1.19048" x1="95.2381" y1="359.398" x2="100" y2="359.398" />
<line stroke="#000000" stroke-width="1.19048" x1="95.2381" y1="334.481" x2="100" y2="334.481" />
<line stroke="#000000" stroke-width="1.19048" x1="95.2381" y1="309.563" x2="100" y2="309.563" />
<line stroke="#000000" stroke-width="1.19048" x1="95.2381" y1="284.645" x2="100" y2="284.645" />
<line stroke="#000000" stroke-width="1.19048" x1="95.2381" y1="259.728" x2="100" y2="259.728" />
<line stroke="#000000" stroke-width="1.19048" x1="95.2381" y1="234.81" x2="100" y2="234.81" />
<line stroke="#000000" stroke-width="1.19048" x1="95.2381" y1="209.893" x2="100" y2="209.893" />
<line stroke="#000000" stroke-width="1.19048" x1="95.2381" y1="184.975" x2="100" y2="184.975" />
<line stroke="#000000" stroke-width="1.19048" x1="95.2381" y1="160.058" x2="100" y2="160.058" />
<line stroke="#000000" stroke-width="1.19048" x1="95.2381" y1="135.14" x2="100" y2="135.14" />
<line stroke="#000000" stroke-width="1.19048" x1="95.2381" y1="110.223" x2="100" y2="110.223" />
<line stroke="#000000" stroke-width="1.19048" x1="95.2381" y1="85.305" x2="100" y2="85.305" />
<polyline stroke="#FF0000" stroke-width="1.19048" fill="none" points="742.857,344.946
742.685,341.856
742.512,338.717
742.34,335.577
742.167,332.537
741.995,329.597
741.822,326.607
741.65,323.666
741.477,320.626
741.305,317.537
741.132,314.447
740.96,311.357
740.788,305.128
740.615,298.151
740.443,286.24
740.27,276.821
740.098,270.343
739.925,264.562
739.753,259.03
739.58,253.2
739.408,247.07
739.235,240.94
739.063,234.86
738.89,228.73
738.718,222.601
738.545,216.471
738.373,210.391
738.201,204.261
738.028,198.132
737.856,192.002
737.683,185.922
737.511,179.792
737.338,173.414
737.166,169.875
736.993,166.736
736.821,164.194
736.648,162.649
736.476,162.45
736.303,162.45
736.131,160.506
735.958,156.818
735.786,153.33
735.613,149.493
735.441,145.306
735.269,142.117
735.096,139.476
734.924,136.835
734.751,133.844
734.579,130.655
734.406,127.964
734.234,125.522
734.061,123.678
733.889,122.133
733.716,121.834
733.544,121.585
733.371,121.386
733.199,119.94
733.026,121.386
732.854,121.984
732.682,124.027
732.509,126.569
732.337,128.961
732.164,131.153
731.992,132.648
731.819,133.296
731.647,132.898
731.474,132.3
731.302,131.602
731.129,130.705
730.957,129.06
730.784,128.163
730.612,127.266
730.439,126.369
730.267,125.921
730.094,125.572
729.922,125.173
729.75,124.824
729.577,124.376
729.405,123.927
729.232,123.429
729.06,122.98
728.887,120.289
728.715,117.449
728.542,115.655
728.37,115.405
728.197,115.106
728.025,114.857
727.852,114.608
727.68,114.16
727.507,113.661
727.335,113.063
727.163,110.97
726.99,109.326
726.818,108.728
726.645,108.08
726.473,107.432
726.3,106.784
726.128,106.086
725.955,105.389
725.783,104.641
725.61,103.894
725.438,103.196
725.265,102.398
725.093,101.601
724.92,100.804
724.748,100.006
724.576,99.5579
724.403,99.0595
724.231,98.611
724.058,98.1625
723.886,97.714
723.713,97.2655
723.541,96.7671
723.368,96.2687
723.196,95.8203
723.023,93.5278
722.851,90.9364
722.678,89.3417
722.506,87.7968
722.333,86.4512
722.161,85.903
721.988,85.305
721.816,84.7568
721.643,84.5077
721.471,84.2585
721.299,83.9595
721.126,83.7103
720.954,83.4611
720.781,83.3615
720.609,83.3615
720.436,83.3615
720.264,83.4113
720.091,83.6106
719.919,83.7601
719.746,83.9595
719.574,84.1588
719.401,84.2086
719.229,84.2086
719.057,84.2086
718.884,84.2086
718.712,84.2086
718.539,84.109
718.367,83.9595
718.194,83.8598
718.022,83.7601
717.849,83.6106
717.677,83.1621
717.504,82.2651
717.332,81.6172
717.159,81.2185
716.987,79.8232
716.814,81.2185
716.642,81.3681
716.469,81.6172
716.297,81.8664
716.125,82.1654
715.952,82.4644
715.78,82.7634
715.607,82.9129
715.435,83.0126
715.262,83.1123
715.09,83.2119
714.917,83.2618
714.745,83.1123
714.572,83.0126
714.4,82.9129
714.227,82.7634
714.055,82.6638
713.882,82.1156
713.71,81.5176
713.537,80.9195
713.365,80.5707
713.193,80.9694
713.02,81.3681
712.848,81.8166
712.675,82.2651
712.503,82.7634
712.33,83.2119
712.158,83.6605
711.985,84.0592
711.813,84.5077
711.64,84.9562
711.468,85.3549
711.295,85.7535
711.123,86.1024
710.951,86.5011
710.778,86.8499
710.606,87.2486
710.433,87.5974
710.261,87.8965
710.088,88.0958
709.916,88.2951
709.743,88.4945
709.571,88.7437
709.398,89.0925
709.226,89.4912
709.053,89.8899
708.881,90.2885
708.708,90.6872
708.536,91.2354
708.363,91.7836
708.191,92.3318
708.018,92.8799
707.846,93.4281
707.674,93.9763
707.501,94.8235
707.329,96.0196
707.156,97.2156
706.984,99.0595
706.811,101.003
706.639,103.046
706.466,105.239
706.294,107.482
706.121,109.674
705.949,112.714
705.776,115.854
705.604,118.994
705.431,123.678
705.259,130.356
705.087,171.37
704.914,205.358
704.742,239.296
704.569,273.283
704.397,288.084
704.224,289.28
704.052,253.499
703.879,205.507
703.707,171.719
703.534,169.925
703.362,208.996
703.189,255.293
703.017,301.589
702.844,347.886
702.672,394.183
702.5,437.739
702.327,437.888
702.155,295.559
701.982,129.21
701.81,102.697
701.637,95.2222
701.465,90.8865
701.292,88.1456
701.12,85.8034
700.947,84.2086
700.775,82.5641
700.602,81.4179
700.43,80.471
700.257,79.5242
700.085,78.5773
699.912,77.6304
699.74,76.6337
699.568,76.1852
699.395,75.7865
699.223,75.3878
699.05,74.9891
698.878,74.5905
698.705,74.2416
698.533,74.0921
698.36,73.8928
698.188,73.7433
698.015,73.5439
697.843,73.3944
697.67,73.1951
697.498,73.0456
697.325,72.8961
697.153,72.7964
696.981,72.6469
696.808,72.4974
696.636,72.3977
696.463,72.2482
696.291,72.0987
696.118,71.9991
695.946,71.8994
695.773,71.8495
695.601,71.7997
695.428,71.7499
695.256,71.7
695.083,71.6502
694.911,71.6004
694.738,71.5505
694.566,71.5007
694.393,71.8994
694.221,71.5007
694.049,71.5505
693.876,71.6004
693.704,71.6502
693.531,71.7
693.359,71.7499
693.186,71.7997
693.014,71.8495
692.841,71.8994
692.669,71.9492
692.496,71.9991
692.324,72.0489
692.151,72.0987
691.979,72.1984
691.806,72.2981
691.634,72.3977
691.462,72.4974
691.289,72.5971
691.117,72.6967
690.944,72.7964
690.772,72.9459
690.599,73.0456
690.427,73.1453
690.254,73.2449
690.082,73.3944
689.909,73.5439
689.737,73.6934
689.564,73.843
689.392,74.0423
689.219,74.1918
689.047,74.3413
688.875,74.4908
688.702,74.6403
688.53,74.7898
688.357,74.9393
688.185,75.0888
688.012,75.2882
687.84,75.4377
687.667,75.5872
687.495,75.7865
687.322,75.9859
687.15,76.1852
686.977,76.4344
686.805,76.6337
686.632,76.8331
686.46,77.0822
686.287,77.2816
686.115,77.4809
685.943,77.8297
685.77,78.2284
685.598,78.5773
685.425,78.976
685.253,79.3248
685.08,79.7235
684.908,80.0724
684.735,80.471
684.563,80.8199
684.39,81.2185
684.218,81.6172
684.045,82.1654
683.873,82.7136
683.7,83.2119
683.528,83.7601
683.356,84.2585
683.183,84.8067
683.011,85.5542
682.838,86.7502
682.666,87.8965
682.493,89.0925
682.321,90.9862
682.148,92.9298
681.976,94.9731
681.803,97.2156
681.631,111.468
681.458,128.562
681.286,145.705
681.113,162.799
680.941,179.892
680.768,182.783
680.596,183.929
680.424,151.935
680.251,108.728
680.079,82.3149
679.906,82.0658
679.734,81.9163
679.561,81.9661
679.389,82.0658
679.216,82.1654
679.044,82.3149
678.871,82.5143
678.699,82.7634
678.526,83.1123
678.354,83.4611
678.181,83.8598
678.009,84.3582
677.837,84.9063
677.664,85.5044
677.492,86.1024
677.319,86.8997
677.147,87.6473
676.974,88.3948
676.802,89.1423
676.629,89.8899
676.457,90.5377
676.284,91.2354
676.112,91.9331
675.939,92.581
675.767,92.7305
675.594,92.7803
675.422,92.8799
675.25,92.9298
675.077,92.9796
674.905,93.0294
674.732,93.4281
674.56,94.0262
674.387,94.6242
674.215,95.1226
674.042,95.571
673.87,96.0196
673.697,96.4681
673.525,96.9166
673.352,97.3651
673.18,97.7638
673.007,98.1625
672.835,98.611
672.662,99.1093
672.49,99.6077
672.318,100.156
672.145,100.654
671.973,103.844
671.8,107.282
671.628,110.671
671.455,110.821
671.283,110.073
671.11,106.634
670.938,103.146
670.765,100.355
670.593,100.355
670.42,100.405
670.248,100.654
670.075,101.003
669.903,101.402
669.731,102
669.558,102.648
669.386,103.246
669.213,103.993
669.041,104.741
668.868,105.488
668.696,106.286
668.523,107.133
668.351,107.98
668.178,108.827
668.006,109.774
667.833,110.771
667.661,111.767
667.488,112.764
667.316,113.861
667.143,115.106
666.971,116.302
666.799,117.499
666.626,118.645
666.454,119.741
666.281,120.887
666.109,121.984
665.936,123.13
665.764,124.376
665.591,126.02
665.419,127.715
665.246,129.409
665.074,131.153
664.901,133.097
664.729,135.04
664.556,136.984
664.384,138.977
664.212,141.32
664.039,143.662
663.867,146.004
663.694,148.346
663.522,151.187
663.349,154.077
663.177,157.018
663.004,161.254
662.832,165.041
662.659,169.327
662.487,174.859
662.314,178.796
662.142,183.68
661.969,191.304
661.797,196.836
661.625,201.67
661.452,206.504
661.28,215.375
661.107,223.847
660.935,228.332
660.762,232.767
660.59,239.495
660.417,247.419
660.245,258.432
660.072,269.396
659.9,279.014
659.727,311.058
659.555,347.787
659.382,384.565
659.21,421.343
659.037,458.072
658.865,494.85
658.693,511.445
658.52,510.997
658.348,467.69
658.175,410.379
658.003,353.069
657.83,249.562
657.658,250.359
657.485,250.06
657.313,278.865
657.14,318.434
656.968,358.003
656.795,397.622
656.623,399.416
656.45,123.479
656.278,146.602
656.106,183.331
655.933,220.109
655.761,256.887
655.588,259.479
655.416,92.4813
655.243,86.1522
655.071,83.3615
654.898,78.8265
654.726,75.7865
654.553,73.9426
654.381,72.8961
654.208,71.9991
654.036,71.5505
653.863,71.102
653.691,70.7033
653.518,70.4542
653.346,70.2548
653.174,70.1053
653.001,69.906
652.829,69.8063
652.656,69.7066
652.484,69.6568
652.311,69.607
652.139,69.5073
651.966,69.7565
651.794,69.4575
651.621,69.4575
651.449,69.4575
651.276,69.4575
651.104,69.4575
650.931,69.607
650.759,69.7066
650.587,69.8561
650.414,70.0056
650.242,70.1053
650.069,70.2548
649.897,70.4043
649.724,70.5538
649.552,70.7532
649.379,70.9027
649.207,71.0522
649.034,71.2515
648.862,71.401
648.689,71.6004
648.517,71.7499
648.344,71.8994
648.172,72.0987
648,72.2981
647.827,72.4974
647.655,72.6469
647.482,72.8463
647.31,73.0456
647.137,73.2449
646.965,73.4443
646.792,73.6436
646.62,73.843
646.447,73.9925
646.275,74.3911
646.102,74.7898
645.93,75.1386
645.757,75.5373
645.585,76.1354
645.412,77.132
645.24,78.0789
645.068,79.3248
644.895,80.77
644.723,81.8664
644.55,82.1654
644.378,82.1654
644.205,81.9661
644.033,81.6172
643.86,81.2185
643.688,80.77
643.515,80.5707
643.343,80.8199
643.17,81.069
642.998,81.3681
642.825,82.1156
642.653,82.9129
642.481,83.6605
642.308,84.5077
642.136,85.305
641.963,86.1024
641.791,86.9496
641.618,87.8965
641.446,89.0925
641.273,90.2885
641.101,91.4846
640.928,92.5311
640.756,93.5776
640.583,94.6242
640.411,95.7206
640.238,96.8668
640.066,98.0628
639.893,99.2589
639.721,100.455
639.549,101.651
639.376,102.947
639.204,104.242
639.031,105.538
638.859,106.884
638.686,108.179
638.514,109.475
638.341,110.97
638.169,112.914
637.996,114.857
637.824,116.801
637.651,118.744
637.479,121.834
637.306,125.073
637.134,128.911
636.961,134.642
636.789,141.868
636.617,149.991
636.444,155.722
636.272,161.453
636.099,167.184
635.927,170.573
635.754,168.33
635.582,163.845
635.409,159.36
635.237,160.606
635.064,167.583
634.892,174.56
634.719,181.586
634.547,186.072
634.375,190.457
634.202,200.025
634.03,208.846
633.857,214.029
633.685,218.714
633.512,223.996
633.34,229.877
633.167,236.056
632.995,242.684
632.822,255.243
632.65,277.37
632.477,348.733
632.305,383.568
632.132,418.453
631.96,453.337
631.787,488.222
631.615,514.286
631.443,514.286
631.27,485.93
631.098,420.247
630.925,354.564
630.753,288.881
630.58,223.199
630.408,157.516
630.235,91.8334
630.063,86.8499
629.89,82.3149
629.718,79.574
629.545,77.9793
629.373,78.5274
629.2,78.6271
629.028,80.2717
628.855,82.5143
628.683,94.5245
628.511,112.665
628.338,130.804
628.166,148.944
627.993,167.084
627.821,168.131
627.648,143.263
627.476,108.678
627.303,85.7535
627.131,80.8697
626.958,76.9825
626.786,74.8397
626.613,73.1453
626.441,72.2482
626.268,71.5007
626.096,70.7532
625.924,70.0555
625.751,69.5571
625.579,69.2581
625.406,68.9591
625.234,68.6103
625.061,68.5604
624.889,68.4109
624.716,69.0089
624.544,69.4076
624.371,69.8063
624.199,70.504
624.026,71.6004
623.854,72.7964
623.681,74.0921
623.509,75.4377
623.336,76.1852
623.164,76.8829
622.992,77.3314
622.819,77.6304
622.647,77.9793
622.474,78.3281
622.302,78.7268
622.129,79.2252
621.957,79.9229
621.784,80.6205
621.612,81.4179
621.439,82.3149
621.267,83.7601
621.094,85.4047
620.922,88.7935
620.749,93.3285
620.577,99.1093
620.405,104.99
620.232,110.322
620.06,114.558
619.887,152.632
619.715,220.259
619.542,287.935
619.37,355.611
619.197,423.237
619.025,434.849
618.852,435.347
618.68,166.237
618.507,87.8466
618.335,74.2416
618.162,71.7499
617.99,70.205
617.818,69.7565
617.645,69.308
617.473,69.1584
617.3,69.1584
617.128,69.2083
616.955,68.8594
616.783,70.1552
616.61,71.5007
616.438,73.3944
616.265,75.4875
616.093,77.5308
615.92,84.1588
615.748,90.7371
615.575,97.3153
615.403,103.894
615.23,105.588
615.058,105.588
614.886,92.7305
614.713,78.976
614.541,72.8463
614.368,73.0954
614.196,72.8961
614.023,73.8928
613.851,75.1386
613.678,77.6802
613.506,79.8232
613.333,81.7667
613.161,88.8433
612.988,115.206
612.816,141.619
612.643,167.982
612.471,194.394
612.299,220.807
612.126,247.169
611.954,249.412
611.781,77.132
611.609,73.2449
611.436,71.8994
611.264,70.803
611.091,70.5538
610.919,70.3047
610.746,70.0056
610.574,69.9558
610.401,70.0056
610.229,70.0555
610.056,70.1552
609.884,70.3047
609.711,70.4542
609.539,70.6037
609.367,70.7033
609.194,70.803
609.022,70.8528
608.849,70.9027
608.677,70.9525
608.504,69.8561
608.332,71.0522
608.159,71.0023
607.987,71.0023
607.814,70.9525
607.642,70.9525
607.469,70.9027
607.297,70.8528
607.125,70.8528
606.952,70.803
606.78,70.7532
606.607,70.6535
606.435,70.6037
606.262,70.5538
606.09,70.504
605.917,70.504
605.745,70.5538
605.572,70.5538
605.4,70.5538
605.227,70.6037
605.055,70.6037
604.882,70.6535
604.71,70.7033
604.537,70.7532
604.365,70.803
604.193,70.9027
604.02,71.102
603.848,71.3014
603.675,71.5505
603.503,71.7499
603.33,71.9492
603.158,72.3479
602.985,72.7964
602.813,73.2449
602.64,73.6934
602.468,74.2416
602.295,74.8895
602.123,75.5373
601.95,76.235
601.778,76.8829
601.605,77.5806
601.433,78.0789
601.26,78.5274
601.088,78.976
600.916,79.4245
600.743,79.6736
600.571,79.574
600.398,79.5242
600.226,79.5242
600.053,79.5242
599.881,79.7733
599.708,80.2218
599.536,80.6205
599.363,81.0192
599.191,81.3182
599.018,81.3681
598.846,81.4677
598.674,81.6172
598.501,81.7169
598.329,81.8166
598.156,81.9661
597.984,82.0658
597.811,82.1156
597.639,82.1654
597.466,82.1654
597.294,82.2152
597.121,82.2651
596.949,82.3647
596.776,82.5143
596.604,82.614
596.431,82.7634
596.259,82.8631
596.086,83.2119
595.914,83.81
595.742,84.408
595.569,85.0558
595.397,85.7037
595.224,86.3516
595.052,86.9994
594.879,87.6473
594.707,88.2951
594.534,88.8433
594.362,89.2918
594.189,89.7902
594.017,90.2387
593.844,90.6872
593.672,91.1357
593.499,91.5843
593.327,92.0328
593.155,92.4813
592.982,92.9796
592.81,93.5278
592.637,94.1258
592.465,94.7239
592.292,95.4714
592.12,96.2687
591.947,97.0661
591.775,97.8635
591.602,99.209
591.43,100.555
591.257,101.9
591.085,104.442
590.912,107.631
590.74,110.571
590.568,113.213
590.395,114.558
590.223,114.708
590.05,113.063
589.878,110.272
589.705,107.432
589.533,104.641
589.36,102.398
589.188,102.797
589.015,103.296
588.843,103.844
588.67,104.541
588.498,105.339
588.325,106.535
588.153,108.528
587.98,110.771
587.808,113.462
587.635,118.595
587.463,147.898
587.291,181.537
587.118,215.125
586.946,248.764
586.773,282.403
586.601,316.042
586.428,349.68
586.256,350.079
586.083,349.481
585.911,73.6934
585.738,73.5938
585.566,74.6902
585.393,75.5872
585.221,76.7334
585.048,78.3281
584.876,79.9727
584.704,81.9163
584.531,83.9096
584.359,87.0991
584.186,90.2885
584.014,93.8268
583.841,97.9133
583.669,108.578
583.496,127.715
583.324,146.851
583.151,165.988
582.979,173.364
582.806,173.364
582.634,173.663
582.461,120.738
582.289,91.9331
582.117,89.7902
581.944,87.7469
581.772,85.604
581.599,83.511
581.427,81.3681
581.254,79.873
581.082,78.7766
580.909,77.6802
580.737,76.5839
580.564,75.5872
580.392,74.8397
580.219,74.0921
580.047,73.3446
579.874,72.6967
579.702,72.2981
579.53,71.8994
579.357,71.5007
579.185,71.102
579.012,70.7532
578.84,70.5538
578.667,70.3047
578.495,70.1053
578.322,69.906
578.15,69.7066
577.977,69.5571
577.805,69.7066
577.632,69.8561
577.46,69.9558
577.287,69.3578
577.115,70.205
576.943,70.3545
576.77,70.5538
576.598,70.8528
576.425,71.102
576.253,71.401
576.08,71.6502
575.908,72.0489
575.735,72.7964
575.563,73.5439
575.39,74.3413
575.218,75.0888
575.045,75.8363
574.873,76.4842
574.7,76.9825
574.528,77.4809
574.355,77.9793
574.183,78.4278
574.01,78.9261
573.838,79.1255
573.666,78.7766
573.493,78.2783
573.321,77.8297
573.148,77.3813
572.976,76.9825
572.803,76.5839
572.631,76.1852
572.458,76.0357
572.286,75.936
572.113,75.7865
571.941,75.6868
571.768,75.7367
571.596,76.235
571.423,76.7334
571.251,77.2816
571.079,78.2284
570.906,79.4743
570.734,80.8199
570.561,82.2651
570.389,83.3116
570.216,84.1588
570.044,84.5575
569.871,84.4578
569.699,84.2585
569.526,84.0592
569.354,83.6605
569.181,83.2119
569.009,82.7634
568.836,82.2651
568.664,81.5176
568.492,80.77
568.319,80.2218
568.147,79.9727
567.974,79.7235
567.802,79.574
567.629,79.4245
567.457,79.2252
567.284,79.1255
567.112,79.1255
566.939,79.1255
566.767,79.9229
566.594,80.9694
566.422,82.0658
566.249,84.3582
566.077,86.3017
565.905,88.2951
565.732,89.84
565.56,100.654
565.387,128.163
565.215,155.722
565.042,183.231
564.87,190.706
564.697,162.051
564.525,190.706
564.352,79.3248
564.18,79.2252
564.007,80.3215
563.835,82.8133
563.662,85.3549
563.49,87.8466
563.318,90.3383
563.145,92.8301
562.973,95.3219
562.8,95.9199
562.628,95.9199
562.455,93.5776
562.283,91.2354
562.11,88.8433
561.938,86.5011
561.765,84.109
561.593,82.4644
561.42,82.614
561.248,81.7169
561.075,83.2119
560.903,84.408
560.73,88.1954
560.558,90.5377
560.385,92.7305
560.213,93.8268
560.041,93.8268
559.868,93.777
559.696,94.0262
559.523,95.0229
559.351,97.2156
559.178,99.8071
559.006,103.146
558.833,106.136
558.661,120.538
558.488,146.752
558.316,165.191
558.143,175.158
557.971,183.43
557.798,189.411
557.626,195.341
557.454,201.271
557.281,207.252
557.109,208.149
556.936,208.049
556.764,209.345
556.591,165.091
556.419,140.074
556.246,115.057
556.074,96.7173
555.901,85.6539
555.729,80.9694
555.556,77.8796
555.384,74.7898
555.211,72.0987
555.039,70.6037
554.867,69.7565
554.694,69.3578
554.522,68.9591
554.349,69.0588
554.177,69.2581
554.004,69.5073
553.832,69.8561
553.659,70.2548
553.487,70.6037
553.314,71.0023
553.142,71.7
552.969,72.5971
552.797,74.2416
552.624,77.0822
552.452,78.976
552.28,81.1189
552.107,82.8133
551.935,83.1621
551.762,83.2618
551.59,82.5143
551.417,79.9229
551.245,76.1354
551.072,73.5439
550.9,73.0954
550.727,73.3446
550.555,74.7898
550.382,76.7334
550.21,78.3281
550.037,78.3779
549.865,74.9891
549.693,77.8297
549.52,76.4344
549.348,74.3911
549.175,73.0954
549.003,71.9492
548.83,70.9525
548.658,70.0056
548.485,68.8594
548.313,68.2614
548.14,67.9126
547.968,68.2614
547.795,69.1086
547.623,69.906
547.45,70.7532
547.278,71.3512
547.105,71.8495
546.933,71.7
546.76,71.0522
546.588,70.0056
546.416,68.4109
546.243,67.6634
546.071,67.5139
545.898,67.6634
545.726,67.9624
545.553,68.6103
545.381,69.2581
545.208,70.4043
545.036,71.4509
544.863,72.3977
544.691,73.3446
544.518,74.2416
544.346,75.2882
544.173,76.7334
544.001,78.2284
543.829,79.9727
543.656,81.6671
543.484,84.0093
543.311,87.6971
543.139,89.2918
542.966,89.8899
542.794,99.9067
542.621,81.9661
542.449,72.4974
542.276,72.2981
542.104,72.2981
541.931,72.1486
541.759,71.9991
541.586,71.8994
541.414,71.8495
541.242,71.7997
541.069,71.7997
540.897,71.7499
540.724,71.6502
540.552,70.6037
540.379,71.4509
540.207,71.3014
540.034,71.2017
539.862,71.0522
539.689,70.9027
539.517,70.9525
539.344,71.5007
539.172,72.6967
538.999,74.0921
538.827,75.3878
538.654,75.9859
538.482,76.4842
538.31,76.5341
538.137,76.5839
537.965,76.6337
537.792,76.5341
537.62,76.4842
537.447,76.3845
537.275,76.2849
537.102,76.3347
536.93,76.4344
536.757,77.3813
536.585,79.275
536.412,81.6671
536.24,84.3083
536.068,86.8001
535.895,89.4413
535.723,92.1823
535.55,96.2189
535.378,102.099
535.205,113.811
535.033,130.655
534.86,147.549
534.688,164.393
534.515,181.287
534.343,198.132
534.17,215.773
533.998,214.527
533.825,194.145
533.653,173.812
533.48,153.479
533.308,133.147
533.135,112.814
532.963,92.4315
532.791,78.0291
532.618,75.5872
532.446,73.5938
532.273,71.6004
532.101,69.7565
531.928,68.7598
531.756,67.7631
531.583,66.9657
531.411,66.8162
531.238,66.7165
531.066,66.7165
530.893,66.6667
530.721,66.9657
530.548,67.1152
530.376,67.2149
530.204,67.4641
530.031,67.6634
529.859,67.9126
529.686,68.1617
529.514,68.3611
529.341,68.6601
529.169,68.9093
528.996,69.1584
528.824,69.4575
528.651,69.7565
528.479,70.4542
528.306,71.1519
528.134,71.7499
527.961,71.9492
527.789,72.0987
527.617,72.0489
527.444,71.7
527.272,71.3512
527.099,71.0023
526.927,70.6535
526.754,70.6037
526.582,70.7532
526.409,70.9027
526.237,71.4509
526.064,72.1984
525.892,72.6967
525.719,73.1453
525.547,73.6436
525.374,74.0921
525.202,74.3413
525.029,74.6403
524.857,74.8895
524.685,75.1885
524.512,75.4377
524.34,75.6868
524.167,75.9859
523.995,76.235
523.822,76.4842
523.65,76.7832
523.477,77.0324
523.305,77.2816
523.132,77.5308
522.96,77.7799
522.787,78.0291
522.615,78.2783
522.442,78.5773
522.27,78.8763
522.098,79.2252
521.925,79.574
521.753,79.9229
521.58,80.2717
521.408,80.6205
521.235,80.9694
521.063,82.1654
520.89,83.4611
520.718,84.9063
520.545,88.345
520.373,96.1192
520.2,108.777
520.028,121.435
519.855,134.094
519.683,146.752
519.51,154.327
519.338,154.775
519.166,145.755
518.993,116.103
518.821,84.4578
518.648,82.0658
518.476,80.8199
518.303,79.7235
518.131,78.677
517.958,77.7301
517.786,76.8331
517.613,75.8862
517.441,74.9891
517.268,74.0921
517.096,73.1951
516.923,72.2981
516.751,72.2482
516.578,72.5472
516.406,71.7499
516.234,73.5439
516.061,74.2416
515.889,75.5373
515.716,76.8829
515.544,78.2783
515.371,79.6238
515.199,80.0225
515.026,79.9229
514.854,79.3747
514.681,78.3281
514.509,77.9294
514.336,78.0789
514.164,78.6271
513.992,79.3248
513.819,81.2185
513.647,83.1123
513.474,84.8565
513.302,86.5509
513.129,86.7004
512.957,86.8001
512.784,86.7502
512.612,86.7004
512.439,86.6506
512.267,86.6506
512.094,85.006
511.922,82.9129
511.749,81.1189
511.577,79.4245
511.404,77.7799
511.232,76.4344
511.06,75.637
510.887,74.8397
510.715,74.5905
510.542,74.5406
510.37,74.4908
510.197,74.6403
510.025,74.8397
509.852,74.6403
509.68,75.2882
509.507,75.4875
509.335,75.7367
509.162,75.9859
508.99,76.235
508.817,76.4344
508.645,76.6836
508.473,76.9327
508.3,77.2816
508.128,77.6304
507.955,77.9793
507.783,78.3281
507.61,78.6271
507.438,79.3248
507.265,80.0724
507.093,80.8199
506.92,81.5674
506.748,83.3116
506.575,85.2054
506.403,87.6473
506.23,90.8865
506.058,95.1226
505.885,100.704
505.713,103.644
505.541,107.831
505.368,131.652
505.196,155.423
505.023,179.244
504.851,203.065
504.678,226.887
504.506,228.88
504.333,204.61
504.161,96.9166
503.988,84.8565
503.816,82.8133
503.643,80.9694
503.471,79.4743
503.298,79.0258
503.126,79.873
502.954,79.8232
502.781,80.172
502.609,80.2218
502.436,80.2717
502.264,80.5707
502.091,80.9195
501.919,81.2185
501.746,81.8664
501.574,82.6638
501.401,81.7169
501.229,80.6205
501.056,79.4743
500.884,78.3281
500.711,76.9825
500.539,75.2383
500.366,73.7931
500.194,72.8961
500.022,72.2981
499.849,72.7466
499.677,71.8495
499.504,71.8994
499.332,71.9492
499.159,72.1486
498.987,72.2981
498.814,72.4974
498.642,72.6469
498.469,72.8463
498.297,72.9957
498.124,73.1453
497.952,73.2948
497.779,73.4443
497.607,73.5938
497.435,73.6934
497.262,73.843
497.09,73.9925
496.917,74.0921
496.745,74.2416
496.572,74.2416
496.4,74.2416
496.227,74.2416
496.055,74.2416
495.882,74.2915
495.71,74.6403
495.537,74.9393
495.365,75.5373
495.192,76.2849
495.02,77.2816
494.848,78.2284
494.675,79.0756
494.503,79.9727
494.33,80.77
494.158,81.3681
493.985,81.9163
493.813,82.4644
493.64,83.0126
493.468,83.511
493.295,83.9595
493.123,84.4578
492.95,84.9562
492.778,85.1555
492.605,85.3549
492.433,85.4545
492.26,85.4545
492.088,85.5044
491.916,85.5044
491.743,85.5044
491.571,85.4545
491.398,85.4047
491.226,85.3549
491.053,85.0558
490.881,84.8067
490.708,84.3083
490.536,83.7103
490.363,82.1654
490.191,80.471
490.018,79.7235
489.846,79.5242
489.673,78.4278
489.501,79.6238
489.329,79.873
489.156,80.2218
488.984,80.5707
488.811,81.2684
488.639,82.5143
488.466,83.9595
488.294,84.9562
488.121,85.006
487.949,85.006
487.776,85.0558
487.604,85.0558
487.431,85.305
487.259,85.604
487.086,86.2021
486.914,87.5476
486.741,88.4945
486.569,88.644
486.397,88.345
486.224,88.2951
486.052,84.9562
485.879,83.2618
485.707,81.6172
485.534,79.9229
485.362,78.2284
485.189,76.5341
485.017,74.8397
484.844,73.1453
484.672,71.7499
484.499,71.0023
484.327,70.9525
484.154,71.5505
483.982,72.1984
483.81,72.9459
483.637,73.9426
483.465,75.2882
483.292,76.2849
483.12,76.6836
482.947,76.3845
482.775,76.0357
482.602,75.637
482.43,75.0888
482.257,74.4908
482.085,73.6934
481.912,72.8463
481.74,72.3977
481.567,72.2482
481.395,72.1984
481.223,72.4475
481.05,72.7466
480.878,73.0954
480.705,73.5439
480.533,73.9426
480.36,74.3911
480.188,74.8895
480.015,75.338
479.843,75.7865
479.67,76.235
479.498,76.6836
479.325,77.0822
479.153,77.4809
478.98,77.8796
478.808,77.8297
478.635,77.7799
478.463,77.7301
478.291,77.5806
478.118,77.3813
477.946,77.2816
477.773,77.3314
477.601,77.7799
477.428,78.7268
477.256,79.6736
477.083,80.6703
476.911,88.1954
476.738,96.7671
476.566,105.289
476.393,113.861
476.221,114.16
476.048,108.777
475.876,101.85
475.704,94.8734
475.531,87.9463
475.359,85.1057
475.186,87.1489
475.014,89.0925
474.841,90.2885
474.669,90.7371
474.496,90.2885
474.324,89.3915
474.151,88.4945
473.979,87.5476
473.806,86.6506
473.634,85.7535
473.461,84.8565
473.289,83.9096
473.116,83.0126
472.944,82.6638
472.772,83.81
472.599,87.4479
472.427,91.0859
472.254,93.2787
472.082,93.3783
471.909,91.1357
471.737,88.644
471.564,86.1024
471.392,83.6106
471.219,81.069
471.047,78.5773
470.874,76.2849
470.702,75.9859
470.529,75.7865
470.357,75.637
470.185,75.5373
470.012,75.4875
469.84,75.4377
469.667,75.4377
469.495,75.3878
469.322,75.3878
469.15,75.3878
468.977,75.3878
468.805,75.3878
468.632,75.338
468.46,75.1386
468.287,74.9891
468.115,74.8397
467.942,74.4908
467.77,73.9925
467.598,73.4443
467.425,73.1453
467.253,72.9957
467.08,72.8961
466.908,72.8463
466.735,72.9957
466.563,73.1453
466.39,73.3944
466.218,73.6934
466.045,74.0423
465.873,74.3413
465.7,74.5406
465.528,74.4908
465.355,74.4908
465.183,74.4908
465.01,74.4908
464.838,74.4409
464.666,74.3911
464.493,74.3911
464.321,74.3413
464.148,74.3911
463.976,75.039
463.803,75.7367
463.631,77.4809
463.458,78.6271
463.286,79.3248
463.113,79.275
462.941,79.2252
462.768,78.2783
462.596,78.1288
462.423,77.132
462.251,76.0855
462.078,74.9891
461.906,73.9426
461.734,72.8463
461.561,71.9492
461.389,71.3512
461.216,70.7532
461.044,70.1552
460.871,69.906
460.699,69.8063
460.526,69.6568
460.354,69.5073
460.181,69.4076
460.009,69.3578
459.836,69.3578
459.664,69.3578
459.491,69.3578
459.319,69.3578
459.147,69.4076
458.974,69.7066
458.802,69.9558
458.629,70.205
458.457,70.504
458.284,70.3545
458.112,70.2548
457.939,70.1053
457.767,70.0056
457.594,69.906
457.422,69.7565
457.249,69.6568
457.077,69.5571
456.904,69.5571
456.732,69.5571
456.56,69.5571
456.387,69.5073
456.215,69.906
456.042,70.2548
455.87,70.6535
455.697,71.0023
455.525,71.7997
455.352,72.5971
455.18,73.3944
455.007,74.142
454.835,74.8895
454.662,75.637
454.49,76.2849
454.317,76.7334
454.145,76.9825
453.972,76.8331
453.8,76.6836
453.628,76.4344
453.455,76.1354
453.283,76.1354
453.11,76.4842
452.938,77.1819
452.765,78.1288
452.593,78.9261
452.42,79.6736
452.248,80.3215
452.075,80.9195
451.903,82.3647
451.73,84.2585
451.558,86.9496
451.385,88.046
451.213,87.9463
451.041,87.2486
450.868,86.1522
450.696,85.0558
450.523,83.9595
450.351,82.8631
450.178,81.7667
450.006,80.7202
449.833,79.6238
449.661,78.5274
449.488,76.7334
449.316,77.1819
449.143,77.2816
448.971,77.5308
448.798,78.1288
448.626,80.172
448.453,82.4146
448.281,84.707
448.109,86.9496
447.936,87.0991
447.764,87.4978
447.591,85.9529
447.419,84.3582
447.246,82.8133
447.074,81.2684
446.901,79.7235
446.729,78.1288
446.556,76.5839
446.384,75.039
446.211,73.4941
446.039,72.2482
445.866,71.4509
445.694,70.7033
445.522,70.205
445.349,69.7066
445.177,69.2581
445.004,68.9591
444.832,68.8096
444.659,68.6103
444.487,68.6601
444.314,68.7099
444.142,68.7598
443.969,68.8096
443.797,68.8594
443.624,68.9093
443.452,69.0089
443.279,69.0588
443.107,69.1584
442.935,69.2083
442.762,69.308
442.59,69.4076
442.417,69.4575
442.245,69.5571
442.072,69.6568
441.9,69.7565
441.727,69.8063
441.555,69.906
441.382,70.0056
441.21,70.1053
441.037,70.1552
440.865,70.205
440.692,70.2548
440.52,70.3047
440.347,70.3545
440.175,70.4043
440.003,70.4542
439.83,70.504
439.658,70.5538
439.485,70.6037
439.313,70.6535
439.14,70.7033
438.968,70.7532
438.795,70.7532
438.623,70.803
438.45,70.803
438.278,70.803
438.105,70.803
437.933,70.803
437.76,70.803
437.588,70.803
437.415,70.803
437.243,70.803
437.071,70.803
436.898,70.8528
436.726,70.8528
436.553,70.8528
436.381,70.8528
436.208,70.8528
436.036,70.8528
435.863,70.9027
435.691,70.9027
435.518,70.9027
435.346,70.9027
435.173,70.9525
435.001,70.9525
434.828,71.0023
434.656,71.0023
434.484,71.0522
434.311,71.0522
434.139,71.0522
433.966,71.0522
433.794,71.102
433.621,71.102
433.449,71.1519
433.276,71.1519
433.104,71.2017
432.931,71.2017
432.759,71.2515
432.586,71.2515
432.414,71.2515
432.241,71.2515
432.069,71.3014
431.897,71.3014
431.724,71.3512
431.552,71.3512
431.379,71.401
431.207,71.401
431.034,71.401
430.862,71.401
430.689,71.4509
430.517,71.4509
430.344,71.5007
430.172,71.5007
429.999,71.5505
429.827,71.5505
429.654,71.6004
429.482,71.6004
429.309,71.6004
429.137,71.6004
428.965,71.6502
428.792,71.6502
428.62,71.7
428.447,71.7
428.275,71.7499
428.102,71.7499
427.93,71.7499
427.757,71.7499
427.585,71.7997
427.412,71.7997
427.24,71.8495
427.067,71.8495
426.895,71.8994
426.722,71.8994
426.55,71.9492
426.378,71.9492
426.205,71.9492
426.033,71.9492
425.86,71.9991
425.688,71.9991
425.515,72.0489
425.343,72.0489
425.17,72.0987
424.998,72.0987
424.825,72.1486
424.653,72.1486
424.48,72.1486
424.308,72.1486
424.135,72.1984
423.963,72.1984
423.79,72.2482
423.618,72.2482
423.446,72.2981
423.273,72.2981
423.101,72.2981
422.928,72.2981
422.756,72.3479
422.583,72.3479
422.411,72.3977
422.238,72.3977
422.066,72.4475
421.893,72.4475
421.721,72.4974
421.548,72.4974
421.376,72.4974
421.203,72.4974
421.031,72.5472
420.859,72.5472
420.686,72.5971
420.514,72.5971
420.341,72.6469
420.169,72.6469
419.996,72.6469
419.824,72.6469
419.651,72.6967
419.479,72.6967
419.306,72.7466
419.134,72.7466
418.961,72.7964
418.789,72.7964
418.616,72.8463
418.444,72.8463
418.272,72.8463
418.099,72.8463
417.927,72.8961
417.754,72.8961
417.582,72.9459
417.409,72.9459
417.237,72.9957
417.064,72.9957
416.892,72.9957
416.719,72.9957
416.547,73.0456
416.374,73.0456
416.202,73.0954
416.029,73.0954
415.857,73.1453
415.684,73.1453
415.512,73.1951
415.34,73.1951
415.167,73.1951
414.995,73.1951
414.822,73.2449
414.65,73.2449
414.477,73.2948
414.305,73.2948
414.132,73.3446
413.96,73.3446
413.787,73.3944
413.615,73.3944
413.442,73.3944
413.27,73.3944
413.097,73.4443
412.925,73.4443
412.753,73.4941
412.58,73.4941
412.408,73.5439
412.235,73.5439
412.063,73.5439
411.89,73.5439
411.718,73.5439
411.545,73.5439
411.373,73.5439
411.2,73.5439
411.028,73.5938
410.855,73.5938
410.683,73.6436
410.51,73.6436
410.338,73.6934
410.165,73.6934
409.993,73.6934
409.821,73.6934
409.648,73.7433
409.476,73.7433
409.303,73.7931
409.131,73.7931
408.958,73.7931
408.786,73.7931
408.613,73.7931
408.441,73.7931
408.268,73.7931
408.096,73.7931
407.923,73.7931
407.751,73.7931
407.578,73.7931
407.406,73.7931
407.234,73.7931
407.061,73.7931
406.889,73.843
406.716,73.843
406.544,73.843
406.371,73.843
406.199,73.843
406.026,73.843
405.854,73.843
405.681,73.843
405.509,73.843
405.336,73.843
405.164,73.9426
404.991,73.9925
404.819,74.0423
404.647,74.0921
404.474,74.1918
404.302,74.2416
404.129,74.3413
403.957,74.3911
403.784,74.4409
403.612,74.4908
403.439,74.5905
403.267,74.6403
403.094,74.6902
402.922,74.74
402.749,74.8397
402.577,74.8895
402.404,74.9393
402.232,74.9891
402.059,75.0888
401.887,75.1386
401.715,75.2383
401.542,75.2882
401.37,75.3878
401.197,75.4377
401.025,75.5373
400.852,75.5872
400.68,75.6868
400.507,75.7865
400.335,75.8862
400.162,75.936
399.99,76.0357
399.817,76.0855
399.645,76.1852
399.472,76.235
399.3,76.3347
399.128,76.3845
398.955,76.4842
398.783,76.5341
398.61,76.6337
398.438,76.6836
398.265,76.7832
398.093,76.8331
397.92,76.9327
397.748,77.0324
397.575,77.132
397.403,77.1819
397.23,77.2816
397.058,77.3314
396.885,77.4311
396.713,77.5308
396.54,77.6304
396.368,77.6802
396.196,77.7799
396.023,77.8297
395.851,77.9294
395.678,78.0291
395.506,78.1288
395.333,78.1786
395.161,78.2783
394.988,78.3779
394.816,78.4776
394.643,78.5274
394.471,78.6271
394.298,78.677
394.126,78.7766
393.953,78.8763
393.781,78.976
393.609,79.0756
393.436,79.1753
393.264,79.275
393.091,79.3747
392.919,79.4743
392.746,79.574
392.574,79.6736
392.401,79.7733
392.229,79.873
392.056,79.9727
391.884,80.0724
391.711,80.172
391.539,80.2717
391.366,80.2717
391.194,80.2717
391.021,80.2717
390.849,80.2717
390.677,80.2717
390.504,80.2717
390.332,80.2717
390.159,80.2717
389.987,80.2717
389.814,80.2218
389.642,80.172
389.469,80.0724
389.297,79.9727
389.124,79.873
388.952,79.7733
388.779,79.6736
388.607,79.6238
388.434,79.5242
388.262,79.4245
388.09,79.3248
387.917,79.2252
387.745,79.1255
387.572,79.0756
387.4,78.976
387.227,78.8763
387.055,78.7766
386.882,78.677
386.71,78.5773
386.537,78.5274
386.365,78.4278
386.192,78.3281
386.02,78.2284
385.847,78.1288
385.675,78.0291
385.503,77.9294
385.33,77.8297
385.158,77.7301
384.985,77.6304
384.813,77.3813
384.64,77.0822
384.468,76.7334
384.295,76.3845
384.123,76.0357
383.95,75.637
383.778,75.4875
383.605,75.338
383.433,75.338
383.26,75.2882
383.088,75.2882
382.915,75.2882
382.743,75.2882
382.571,75.2383
382.398,75.2383
382.226,75.1885
382.053,75.2383
381.881,75.2383
381.708,75.338
381.536,75.3878
381.363,75.4875
381.191,75.5373
381.018,75.5872
380.846,75.637
380.673,75.6868
380.501,75.7367
380.328,75.7367
380.156,75.7367
379.984,75.7367
379.811,75.7367
379.639,75.7367
379.466,75.7367
379.294,75.7367
379.121,75.7367
378.949,75.637
378.776,75.5373
378.604,75.4377
378.431,75.2882
378.259,75.1885
378.086,75.039
377.914,74.9393
377.741,74.7898
377.569,74.8397
377.396,74.8895
377.224,74.9393
377.052,74.9393
376.879,74.9891
376.707,74.9891
376.534,75.039
376.362,75.0888
376.189,75.1885
376.017,75.2383
375.844,75.338
375.672,75.4377
375.499,75.5373
375.327,75.5872
375.154,75.6868
374.982,75.7367
374.809,75.8363
374.637,75.936
374.465,76.0357
374.292,76.0855
374.12,76.1852
373.947,76.235
373.775,76.3347
373.602,76.3845
373.43,76.4344
373.257,76.4344
373.085,76.4842
372.912,76.5341
372.74,76.5839
372.567,76.5839
372.395,76.6337
372.222,76.6836
372.05,76.7334
371.878,76.7334
371.705,76.7832
371.533,76.8331
371.36,76.8829
371.188,76.8829
371.015,76.9327
370.843,76.9825
370.67,77.0324
370.498,77.0324
370.325,77.0822
370.153,77.132
369.98,77.1819
369.808,77.1819
369.635,77.2318
369.463,77.2318
369.29,77.2816
369.118,77.2816
368.946,77.3314
368.773,77.3314
368.601,77.3813
368.428,77.4311
368.256,77.4809
368.083,77.4809
367.911,77.5308
367.738,77.5308
367.566,77.5806
367.393,77.5806
367.221,77.6304
367.048,77.6802
366.876,77.7301
366.703,77.7301
366.531,77.7799
366.359,77.7799
366.186,77.8297
366.014,77.8297
365.841,77.8796
365.669,77.9294
365.496,77.9793
365.324,77.9793
365.151,78.0291
364.979,78.0291
364.806,78.0789
364.634,78.0789
364.461,78.0789
364.289,78.0789
364.116,78.1288
363.944,78.1288
363.771,78.1786
363.599,78.1786
363.427,78.2284
363.254,78.2284
363.082,78.2783
362.909,78.2783
362.737,78.2783
362.564,78.2783
362.392,78.3281
362.219,78.3281
362.047,78.3779
361.874,78.3779
361.702,78.4278
361.529,78.4278
361.357,78.4776
361.184,78.4776
361.012,78.4776
360.84,78.4776
360.667,78.5274
360.495,78.5274
360.322,78.5773
360.15,78.5773
359.977,78.6271
359.805,78.6271
359.632,78.6271
359.46,78.6271
359.287,78.6271
359.115,78.6271
358.942,78.6271
358.77,78.6271
358.597,78.6271
358.425,78.6271
358.253,78.6271
358.08,78.6271
357.908,78.6271
357.735,78.6271
357.563,78.6271
357.39,78.6271
357.218,78.6271
357.045,78.6271
356.873,78.6271
356.7,78.6271
356.528,78.6271
356.355,78.6271
356.183,78.677
356.01,78.677
355.838,78.677
355.665,78.677
355.493,78.677
355.321,78.677
355.148,78.677
354.976,78.677
354.803,78.7268
354.631,78.7268
354.458,78.7766
354.286,78.7766
354.113,78.8265
353.941,78.8763
353.768,78.9261
353.596,78.976
353.423,79.0258
353.251,79.0756
353.078,79.1255
352.906,79.1753
352.733,79.2252
352.561,79.275
352.389,79.3248
352.216,79.3747
352.044,79.574
351.871,79.7235
351.699,79.9229
351.526,80.1222
351.354,80.3713
351.181,80.5707
351.009,80.77
350.836,80.9694
350.664,81.1687
350.491,81.3681
350.319,81.5674
350.146,81.7667
349.974,81.9661
349.802,82.1654
349.629,82.3647
349.457,82.5641
349.284,82.7634
349.112,82.9628
348.939,83.1123
348.767,83.2119
348.594,83.3615
348.422,83.4611
348.249,83.5608
348.077,83.6605
347.904,83.81
347.732,83.9096
347.559,84.0093
347.387,84.109
347.215,84.2086
347.042,84.3083
346.87,84.4578
346.697,84.5575
346.525,84.5575
346.352,84.5575
346.18,84.5077
346.007,84.408
345.835,84.3582
345.662,84.3083
345.49,84.2585
345.317,84.1588
345.145,84.109
344.972,84.0592
344.8,84.0093
344.628,83.9595
344.455,83.9096
344.283,83.81
344.11,83.7601
343.938,83.7103
343.765,83.6605
343.593,83.6106
343.42,83.6106
343.248,83.5608
343.075,83.511
342.903,83.4611
342.73,83.4113
342.558,83.3615
342.385,83.3615
342.213,83.3116
342.04,83.2618
341.868,83.2119
341.695,83.1621
341.523,83.1123
341.351,83.1123
341.178,83.0624
341.006,83.0126
340.833,82.9628
340.661,82.9628
340.488,82.9129
340.316,82.9129
340.143,82.8631
339.971,82.9129
339.798,82.9129
339.626,82.9628
339.453,82.9628
339.281,82.9628
339.108,82.9628
338.936,83.4611
338.764,83.9096
338.591,84.408
338.419,84.8565
338.246,85.3549
338.074,85.8532
337.901,85.9529
337.729,86.0027
337.556,86.0526
337.384,86.0526
337.211,86.1024
337.039,86.1024
336.866,86.1522
336.694,86.1522
336.521,86.2021
336.349,86.2021
336.177,86.2519
336.004,86.2519
335.832,86.3017
335.659,86.3017
335.487,86.3516
335.314,86.3516
335.142,86.4014
334.969,86.4014
334.797,86.4014
334.624,86.4014
334.452,86.4512
334.279,86.4512
334.107,86.5011
333.934,86.5509
333.762,86.6007
333.59,86.6506
333.417,86.7004
333.245,86.7004
333.072,86.7502
332.9,86.8001
332.727,86.8499
332.555,86.8499
332.382,86.8997
332.21,86.9496
332.037,86.9994
331.865,86.9994
331.692,87.0493
331.52,87.0991
331.347,87.1489
331.175,87.1489
331.002,87.1988
330.83,87.2486
330.658,87.2984
330.485,87.3483
330.313,87.3981
330.14,87.4479
329.968,87.4978
329.795,87.5476
329.623,87.5974
329.45,87.6473
329.278,87.6971
329.105,87.7469
328.933,87.8466
328.76,87.8965
328.588,87.9463
328.415,87.9961
328.243,88.046
328.07,88.0958
327.898,88.1456
327.726,88.1954
327.553,88.2951
327.381,88.345
327.208,88.3948
327.036,88.4446
326.863,88.5443
326.691,88.644
326.518,88.7437
326.346,88.7935
326.173,88.8932
326.001,88.9928
325.828,89.0925
325.656,89.1423
325.483,89.242
325.311,89.3417
325.139,89.4413
324.966,89.4912
324.794,89.5909
324.621,89.6905
324.449,89.7902
324.276,89.84
324.104,89.9397
323.931,90.0394
323.759,90.139
323.586,90.1888
323.414,90.2885
323.241,90.3882
323.069,90.4879
322.896,90.5377
322.724,90.6872
322.552,90.8367
322.379,90.9862
322.207,91.0859
322.034,91.2354
321.862,91.3849
321.689,91.5344
321.517,91.6341
321.344,91.7836
321.172,91.9331
320.999,92.0826
320.827,92.1823
320.654,92.3318
320.482,92.4813
320.309,92.6308
320.137,92.7305
319.964,92.8799
319.792,93.0294
319.62,93.179
319.447,93.2787
319.275,93.4281
319.102,93.5776
318.93,93.7272
318.757,93.8268
318.585,93.9763
318.412,94.1258
318.24,94.3252
318.067,94.4747
317.895,94.7239
317.722,94.9232
317.55,95.1724
317.377,95.3717
317.205,95.6209
317.033,95.8203
316.86,96.0694
316.688,96.2687
316.515,96.5179
316.343,96.7173
316.17,96.8668
315.998,97.0163
315.825,97.0163
315.653,97.0163
315.48,97.0661
315.308,97.0661
315.135,97.0661
314.963,97.0661
314.79,97.116
314.618,97.116
314.445,97.0661
314.273,96.9664
314.101,96.8668
313.928,96.7671
313.756,96.7173
313.583,96.6176
313.411,96.5179
313.238,96.4183
313.066,96.3684
312.893,96.2687
312.721,96.1192
312.548,95.9697
312.376,95.7704
312.203,95.5212
312.031,95.3219
311.858,95.0727
311.686,94.8734
311.514,94.6242
311.341,94.6242
311.169,94.6242
310.996,94.7239
310.824,94.7737
310.651,94.9232
310.479,95.0229
310.306,95.1226
310.134,95.2222
309.961,95.3717
309.789,95.4714
309.616,95.571
309.444,95.6707
309.271,95.8203
309.099,95.9199
308.927,96.0694
308.754,96.1691
308.582,96.2687
308.409,96.3684
308.237,96.5179
308.064,96.6674
307.892,96.8169
307.719,96.9166
307.547,97.0661
307.374,97.2156
307.202,97.3651
307.029,97.5146
306.857,97.6642
306.684,97.7638
306.512,97.9133
306.339,98.0628
306.167,98.1625
305.995,98.2123
305.822,98.2621
305.65,98.2621
305.477,98.312
305.305,98.312
305.132,98.3618
304.96,98.4117
304.787,98.4615
304.615,98.4615
304.442,98.5113
304.27,98.5612
304.097,98.611
303.925,98.611
303.752,98.6608
303.58,98.6608
303.408,98.6608
303.235,98.611
303.063,98.5612
302.89,98.5113
302.718,98.4615
302.545,98.4117
302.373,98.5113
302.2,98.5612
302.028,98.7107
301.855,98.8602
301.683,99.0097
301.51,99.1592
301.338,99.4084
301.165,99.6077
300.993,99.9565
300.82,100.256
300.648,100.604
300.476,100.903
300.303,101.103
300.131,101.252
299.958,101.352
299.786,101.402
299.613,101.501
299.441,101.551
299.268,101.601
299.096,101.601
298.923,101.651
298.751,101.651
298.578,101.701
298.406,101.701
298.233,101.751
298.061,101.751
297.889,101.8
297.716,101.8
297.544,101.8
297.371,101.8
297.199,101.85
297.026,101.9
296.854,101.95
296.681,101.95
296.509,102
296.336,102
296.164,102.05
295.991,102.05
295.819,102.099
295.646,102.149
295.474,102.199
295.302,102.199
295.129,102.249
294.957,102.299
294.784,102.398
294.612,102.448
294.439,102.548
294.267,102.648
294.094,102.747
293.922,102.797
293.749,102.897
293.577,102.996
293.404,103.096
293.232,103.146
293.059,103.246
292.887,103.296
292.714,103.395
292.542,103.495
292.37,103.595
292.197,103.644
292.025,103.744
291.852,103.844
291.68,103.943
291.507,103.993
291.335,104.093
291.162,104.143
290.99,104.242
290.817,104.342
290.645,104.442
290.472,104.492
290.3,104.591
290.127,104.691
289.955,104.791
289.783,104.84
289.61,104.94
289.438,105.04
289.265,105.139
289.093,105.239
288.92,105.339
288.748,105.438
288.575,105.538
288.403,105.588
288.23,105.688
288.058,105.787
287.885,105.887
287.713,105.987
287.54,106.086
287.368,106.186
287.195,106.286
287.023,106.335
286.851,106.435
286.678,106.535
286.506,106.634
286.333,106.734
286.161,106.834
285.988,106.933
285.816,107.033
285.643,107.133
285.471,107.232
285.298,107.332
285.126,107.432
284.953,107.531
284.781,107.681
284.608,107.781
284.436,107.88
284.264,107.98
284.091,108.08
283.919,108.179
283.746,108.279
283.574,108.379
283.401,108.777
283.229,109.126
283.056,109.625
282.884,110.073
282.711,110.522
282.539,110.97
282.366,111.518
282.194,112.017
282.021,112.665
281.849,113.263
281.677,113.91
281.504,114.508
281.332,115.206
281.159,115.904
280.987,116.701
280.814,117.449
280.642,117.449
280.469,117.449
280.297,117.349
280.124,117.199
279.952,117.05
279.779,116.9
279.607,116.352
279.434,115.754
279.262,115.256
279.089,114.708
278.917,114.459
278.745,114.209
278.572,113.96
278.4,113.711
278.227,113.562
278.055,113.362
277.882,113.362
277.71,113.312
277.537,113.312
277.365,113.263
277.192,113.263
277.02,113.213
276.847,113.163
276.675,113.113
276.502,113.113
276.33,113.063
276.158,113.113
275.985,113.113
275.813,113.163
275.64,113.213
275.468,113.263
275.295,113.312
275.123,113.362
274.95,113.412
274.778,113.512
274.605,113.562
274.433,113.761
274.26,113.91
274.088,114.11
273.915,114.259
273.743,114.459
273.57,114.608
273.398,114.807
273.226,115.007
273.053,115.505
272.881,115.954
272.708,116.452
272.536,116.9
272.363,117.847
272.191,118.794
272.018,120.04
271.846,121.286
271.673,122.582
271.501,123.828
271.328,125.372
271.156,126.917
270.983,128.313
270.811,129.658
270.639,130.804
270.466,131.901
270.294,133.047
270.121,134.143
269.949,135.24
269.776,136.336
269.604,137.183
269.431,138.031
269.259,138.08
269.086,138.13
268.914,136.934
268.741,135.688
268.569,134.492
268.396,133.246
268.224,132.748
268.051,132.25
267.879,132.349
267.707,132.449
267.534,132.648
267.362,132.848
267.189,133.197
267.017,133.496
266.844,134.343
266.672,135.14
266.499,137.433
266.327,139.725
266.154,141.27
265.982,142.765
265.809,143.612
265.637,144.409
265.464,143.861
265.292,143.263
265.12,142.715
264.947,142.117
264.775,142.217
264.602,142.267
264.43,144.659
264.257,147.001
264.085,149.792
263.912,152.582
263.74,153.33
263.567,154.077
263.395,154.028
263.222,153.978
263.05,153.33
262.877,152.682
262.705,152.433
262.533,152.134
262.36,152.084
262.188,151.984
262.015,151.935
261.843,151.885
261.67,152.034
261.498,152.134
261.325,153.579
261.153,154.975
260.98,159.31
260.808,163.596
260.635,174.659
260.463,185.673
260.29,196.736
260.118,207.75
259.945,218.763
259.773,229.777
259.601,240.84
259.428,251.854
259.256,262.519
259.083,273.183
258.911,273.134
258.738,272.436
258.566,271.19
258.393,269.246
258.221,265.858
258.048,262.469
257.876,242.286
257.703,222.053
257.531,196.089
257.358,170.124
257.186,150.19
257.013,130.256
256.841,127.515
256.669,124.774
256.496,123.08
256.324,121.386
256.151,120.339
255.979,119.293
255.806,118.645
255.634,117.947
255.461,117.648
255.289,117.299
255.116,117.15
254.944,116.95
254.771,116.851
254.599,116.751
254.426,116.701
254.254,116.651
254.082,116.651
253.909,116.651
253.737,116.651
253.564,116.651
253.392,116.651
253.219,116.651
253.047,116.602
252.874,116.502
252.702,116.452
252.529,116.352
252.357,116.302
252.184,116.203
252.012,116.153
251.839,116.053
251.667,116.003
251.495,115.904
251.322,115.605
251.15,115.306
250.977,114.558
250.805,113.761
250.632,112.615
250.46,111.468
250.287,111.07
250.115,110.671
249.942,110.422
249.77,110.123
249.597,110.073
249.425,109.973
249.252,109.924
249.08,109.824
248.907,109.774
248.735,109.674
248.563,109.674
248.39,109.625
248.218,109.625
248.045,109.575
247.873,109.575
247.7,109.525
247.528,109.475
247.355,109.425
247.183,109.425
247.01,109.375
246.838,109.375
246.665,109.326
246.493,109.326
246.32,109.326
246.148,109.326
245.976,109.276
245.803,109.276
245.631,109.276
245.458,109.276
245.286,109.226
245.113,109.226
244.941,109.226
244.768,109.226
244.596,109.176
244.423,109.176
244.251,109.176
244.078,109.176
243.906,109.176
243.733,109.226
243.561,109.226
243.389,109.276
243.216,109.326
243.044,109.375
242.871,109.375
242.699,109.425
242.526,109.475
242.354,109.525
242.181,109.525
242.009,109.575
241.836,109.575
241.664,109.625
241.491,109.674
241.319,109.724
241.146,109.724
240.974,109.774
240.801,109.774
240.629,109.874
240.457,109.924
240.284,110.023
240.112,110.123
239.939,110.223
239.767,110.272
239.594,110.372
239.422,110.422
239.249,110.522
239.077,110.621
238.904,110.721
238.732,110.771
238.559,110.87
238.387,110.97
238.214,111.07
238.042,111.12
237.87,111.219
237.697,111.319
237.525,111.419
237.352,111.518
237.18,111.668
237.007,111.767
236.835,111.867
236.662,111.967
236.49,112.116
236.317,112.216
236.145,112.365
235.972,112.465
235.8,112.565
235.627,112.665
235.455,112.914
235.282,113.113
235.11,113.362
234.938,113.562
234.765,113.811
234.593,114.06
234.42,114.309
234.248,114.508
234.075,114.758
233.903,114.957
233.73,115.206
233.558,115.206
233.385,115.555
233.213,115.655
233.04,115.704
232.868,115.704
232.695,115.754
232.523,115.754
232.351,115.704
232.178,115.605
232.006,115.555
231.833,115.455
231.661,115.405
231.488,115.306
231.316,115.256
231.143,115.156
230.971,115.106
230.798,115.057
230.626,115.057
230.453,115.007
230.281,115.007
230.108,115.007
229.936,115.007
229.763,114.957
229.591,115.007
229.419,115.057
229.246,115.106
229.074,115.156
228.901,115.206
228.729,115.256
228.556,115.306
228.384,115.356
228.211,115.405
228.039,115.455
227.866,115.505
227.694,115.555
227.521,115.605
227.349,115.655
227.176,115.704
227.004,115.754
226.832,115.804
226.659,115.854
226.487,115.904
226.314,115.954
226.142,116.053
225.969,116.103
225.797,116.153
225.624,116.203
225.452,116.253
225.279,116.302
225.107,116.402
224.934,116.452
224.762,116.502
224.589,116.552
224.417,116.651
224.245,116.701
224.072,116.801
223.9,116.851
223.727,116.9
223.555,116.95
223.382,117.05
223.21,117.1
223.037,117.15
222.865,117.199
222.692,117.299
222.52,117.349
222.347,117.449
222.175,117.499
222.002,117.598
221.83,117.648
221.657,117.748
221.485,117.798
221.313,117.897
221.14,117.947
220.968,118.047
220.795,118.097
220.623,118.196
220.45,118.296
220.278,118.396
220.105,118.445
219.933,118.545
219.76,118.595
219.588,118.695
219.415,118.744
219.243,118.844
219.07,118.944
218.898,119.043
218.726,119.143
218.553,119.243
218.381,119.342
218.208,119.442
218.036,119.542
217.863,119.641
217.691,119.741
217.518,119.891
217.346,119.99
217.173,120.09
217.001,120.19
216.828,120.289
216.656,120.389
216.483,120.489
216.311,120.588
216.138,120.738
215.966,120.837
215.794,120.937
215.621,121.037
215.449,121.136
215.276,121.236
215.104,121.336
214.931,121.435
214.759,121.585
214.586,121.685
214.414,121.784
214.241,121.884
214.069,122.034
213.896,122.133
213.724,122.283
213.551,122.382
213.379,122.482
213.207,122.582
213.034,122.731
212.862,122.831
212.689,122.98
212.517,123.08
212.344,123.23
212.172,123.329
211.999,123.479
211.827,123.578
211.654,123.728
211.482,123.828
211.309,123.927
211.137,124.027
210.964,124.176
210.792,124.276
210.619,124.426
210.447,124.525
210.275,124.675
210.102,124.774
209.93,124.974
209.757,125.123
209.585,125.273
209.412,125.422
209.24,125.572
209.067,125.721
208.895,125.921
208.722,126.07
208.55,126.22
208.377,126.369
208.205,126.569
208.032,126.718
207.86,126.917
207.688,127.117
207.515,127.366
207.343,127.565
207.17,127.814
206.998,128.014
206.825,128.263
206.653,128.462
206.48,128.711
206.308,128.911
206.135,129.16
205.963,129.359
205.79,129.559
205.618,129.758
205.445,129.957
205.273,130.107
205.1,130.306
204.928,130.505
204.756,130.705
204.583,130.854
204.411,131.054
204.238,131.253
204.066,131.452
203.893,131.602
203.721,131.751
203.548,131.901
203.376,131.851
203.203,131.751
203.031,131.901
202.858,132.05
202.686,132.549
202.513,132.997
202.341,133.745
202.169,134.442
201.996,134.741
201.824,134.991
201.651,135.04
201.479,135.04
201.306,134.941
201.134,134.841
200.961,134.741
200.789,134.592
200.616,134.592
200.444,134.592
200.271,134.642
200.099,134.692
199.926,135.09
199.754,135.439
199.582,135.838
199.409,136.237
199.237,136.835
199.064,137.433
198.892,137.881
198.719,138.28
198.547,138.429
198.374,138.579
198.202,138.728
198.029,138.878
197.857,139.077
197.684,139.227
197.512,139.326
197.339,139.426
197.167,139.476
196.994,139.526
196.822,139.575
196.65,139.625
196.477,139.675
196.305,139.725
196.132,139.775
195.96,139.825
195.787,139.874
195.615,139.924
195.442,139.974
195.27,140.024
195.097,140.074
194.925,140.074
194.752,140.074
194.58,140.024
194.407,140.024
194.235,139.974
194.063,139.924
193.89,139.874
193.718,139.874
193.545,139.825
193.373,139.825
193.2,139.775
193.028,139.924
192.855,140.074
192.683,140.273
192.51,140.423
192.338,140.622
192.165,140.772
191.993,141.021
191.82,141.22
191.648,141.469
191.475,141.718
191.303,142.017
191.131,142.267
190.958,142.516
190.786,142.715
190.613,142.765
190.441,142.815
190.268,142.815
190.096,142.815
189.923,142.815
189.751,142.815
189.578,142.815
189.406,142.815
189.233,142.865
189.061,142.865
188.888,143.164
188.716,143.463
188.544,143.762
188.371,144.061
188.199,144.409
188.026,144.708
187.854,145.356
187.681,145.954
187.509,146.253
187.336,146.503
187.164,146.453
186.991,146.403
186.819,146.253
186.646,146.104
186.474,145.855
186.301,145.606
186.129,145.356
185.957,144.11
185.784,144.808
185.612,144.559
185.439,144.409
185.267,144.26
185.094,144.21
184.922,144.11
184.749,144.011
184.577,143.911
184.404,143.961
184.232,143.961
184.059,144.011
183.887,144.011
183.714,144.061
183.542,144.061
183.369,144.11
183.197,144.11
183.025,144.16
182.852,144.21
182.68,144.31
182.507,144.409
182.335,144.509
182.162,144.609
181.99,144.758
181.817,144.858
181.645,144.958
181.472,145.057
181.3,145.207
181.127,145.356
180.955,145.506
180.782,145.606
180.61,145.755
180.438,145.905
180.265,146.004
180.093,146.104
179.92,146.204
179.748,146.303
179.575,146.403
179.403,146.503
179.23,146.602
179.058,146.702
178.885,146.752
178.713,146.802
178.54,146.802
178.368,146.752
178.195,146.752
178.023,146.752
177.85,146.752
177.678,146.752
177.506,146.752
177.333,146.702
177.161,146.702
176.988,146.652
176.816,146.652
176.643,146.602
176.471,146.602
176.298,146.552
176.126,146.503
175.953,146.403
175.781,146.353
175.608,146.253
175.436,146.204
175.263,146.104
175.091,146.054
174.919,145.954
174.746,145.905
174.574,145.805
174.401,145.755
174.229,145.705
174.056,145.655
173.884,145.556
173.711,145.506
173.539,145.406
173.366,145.356
173.194,145.257
173.021,145.207
172.849,145.107
172.676,145.057
172.504,145.008
172.331,144.958
172.159,144.858
171.987,144.808
171.814,144.708
171.642,144.659
171.469,144.559
171.297,144.509
171.124,144.409
170.952,144.36
170.779,144.31
170.607,144.26
170.434,144.16
170.262,144.11
170.089,144.011
169.917,143.961
169.744,143.861
169.572,143.811
169.4,143.762
169.227,143.712
169.055,143.612
168.882,143.562
168.71,143.463
168.537,143.413
168.365,143.313
168.192,143.263
168.02,143.164
167.847,143.114
167.675,143.064
167.502,143.014
167.33,142.914
167.157,142.865
166.985,142.765
166.812,142.715
166.64,142.615
166.468,142.566
166.295,142.466
166.123,142.416
165.95,142.366
165.778,142.316
165.605,142.217
165.433,142.167
165.26,142.067
165.088,142.017
164.915,141.918
164.743,141.868
164.57,141.818
164.398,141.768
164.225,141.669
164.053,141.619
163.881,141.519
163.708,141.469
163.536,141.37
163.363,141.32
163.191,141.27
163.018,141.32
162.846,141.32
162.673,141.37
162.501,141.37
162.328,141.419
162.156,141.469
161.983,141.519
161.811,141.519
161.638,141.569
161.466,141.569
161.294,141.619
161.121,141.619
160.949,141.718
160.776,141.768
160.604,141.818
160.431,141.868
160.259,141.968
160.086,142.017
159.914,142.117
159.741,142.167
159.569,142.217
159.396,142.267
159.224,142.366
159.051,142.416
158.879,142.516
158.706,142.566
158.534,142.665
158.362,142.715
158.189,142.815
158.017,142.865
157.844,142.964
157.672,143.014
157.499,143.114
157.327,143.164
157.154,143.263
156.982,143.313
156.809,143.363
156.637,143.413
156.464,143.512
156.292,143.562
156.119,143.612
155.947,143.662
155.775,143.662
155.602,143.662
155.43,143.213
155.257,142.765
155.085,142.566
154.912,142.366
154.74,142.167
154.567,141.968
154.395,141.818
154.222,141.669
154.05,141.669
153.877,141.669
153.705,141.569
153.532,141.419
153.36,141.17
153.188,140.871
153.015,140.622
152.843,140.373
152.67,140.124
152.498,139.825
152.325,139.775
152.153,139.675
151.98,139.675
151.808,139.675
151.635,139.675
151.463,139.675
151.29,139.825
151.118,139.974
150.945,140.173
150.773,140.373
150.6,140.572
150.428,140.722
150.256,140.871
150.083,141.021
149.911,141.17
149.738,141.32
149.566,141.469
149.393,141.569
149.221,141.718
149.048,141.868
148.876,142.017
148.703,142.117
148.531,142.117
148.358,142.067
148.186,142.067
148.013,142.017
147.841,141.968
147.669,141.918
147.496,141.868
147.324,141.818
147.151,141.669
146.979,141.469
146.806,141.32
146.634,141.12
146.461,140.971
146.289,140.772
146.116,140.622
145.944,140.472
145.771,140.323
145.599,140.124
145.426,139.974
145.254,139.426
145.081,139.675
144.909,139.526
144.737,139.426
144.564,139.276
144.392,139.177
144.219,139.077
144.047,139.077
143.874,139.027
143.702,139.027
143.529,139.027
143.357,139.027
143.184,138.977
143.012,138.977
142.839,138.977
142.667,138.977
142.494,138.928
142.322,138.928
142.15,138.928
141.977,138.928
141.805,138.928
141.632,138.977
141.46,139.027
141.287,139.077
141.115,139.077
140.942,139.127
140.77,139.127
140.597,139.177
140.425,139.227
140.252,139.276
140.08,139.276
139.907,139.326
139.735,139.376
139.562,139.426
139.39,139.426
139.218,139.476
139.045,139.476
138.873,139.526
138.7,139.575
138.528,139.625
138.355,139.625
138.183,139.675
138.01,139.725
137.838,139.775
137.665,139.775
137.493,139.825
137.32,139.874
137.148,139.924
136.975,139.924
136.803,139.974
136.631,140.024
136.458,140.074
136.286,140.074
136.113,140.124
135.941,140.173
135.768,140.223
135.596,140.223
135.423,140.273
135.251,140.323
135.078,140.373
134.906,140.373
134.733,140.472
134.561,140.522
134.388,140.572
134.216,140.622
134.044,140.672
133.871,140.722
133.699,140.772
133.526,140.821
133.354,140.871
133.181,140.921
133.009,140.971
132.836,141.021
132.664,141.12
132.491,141.17
132.319,141.22
132.146,141.27
131.974,141.37
131.801,141.469
131.629,141.569
131.456,141.669
131.284,141.768
131.112,141.868
130.939,142.017
130.767,142.117
130.594,142.217
130.422,142.316
130.249,142.416
130.077,142.516
129.904,142.615
129.732,142.715
129.559,142.815
129.387,142.914
129.214,143.064
129.042,143.213
128.869,143.363
128.697,143.463
128.525,143.612
128.352,143.712
128.18,143.861
128.007,143.961
127.835,144.11
127.662,144.26
127.49,144.409
127.317,144.509
127.145,144.659
126.972,144.758
126.8,144.908
126.627,145.057
126.455,145.207
126.282,145.306
126.11,145.456
125.937,145.556
125.765,145.705
125.593,145.805
125.42,145.954
125.248,146.104
125.075,146.253
124.903,146.353
124.73,146.503
124.558,146.602
124.385,146.702
124.213,146.802
124.04,146.901
123.868,147.001
123.695,147.101
123.523,147.2
123.35,147.3
123.178,147.4
123.006,147.499
122.833,147.599
122.661,147.699
122.488,147.798
122.316,147.898
122.143,147.998
121.971,148.097
121.798,148.197
121.626,148.297
121.453,148.396
121.281,148.496
121.108,148.596
120.936,148.695
120.763,148.795
120.591,148.895
120.418,148.994
120.246,149.094
120.074,149.194
119.901,149.243
119.729,149.293
119.556,149.343
119.384,149.343
119.211,149.393
119.039,149.393
118.866,149.443
118.694,149.443
118.521,149.493
118.349,149.543
118.176,149.592
118.004,149.592
117.831,149.642
117.659,149.642
117.487,149.692
117.314,149.692
117.142,149.742
116.969,149.742
116.797,149.792
116.624,149.841
116.452,149.891
116.279,149.891
116.107,149.941
115.934,149.941
115.762,149.991
115.589,149.991
115.417,150.041
115.244,150.091
115.072,150.141
114.9,150.141
114.727,150.19
114.555,150.24
114.382,150.29
114.21,150.29
114.037,150.34
113.865,150.39
113.692,150.44
113.52,150.489
113.347,150.539
113.175,150.539
113.002,150.589
112.83,150.639
112.657,150.689
112.485,150.739
112.312,150.788
112.14,150.838
111.968,150.888
111.795,150.888
111.623,150.938
111.45,150.988
111.278,151.038
111.105,151.087
110.933,151.137
110.76,151.187
110.588,151.237
110.415,151.237
110.243,151.287
110.07,151.337
109.898,151.386
109.725,151.436
109.553,151.486
109.381,151.486
109.208,151.536
109.036,151.586
108.863,151.636
108.691,151.685
108.518,151.785
108.346,151.835
108.173,151.935
108.001,152.034
107.828,152.134
107.656,152.184
107.483,152.283
107.311,152.333
107.138,152.433
106.966,152.483
106.793,152.582
106.621,152.632
106.449,152.732
106.276,152.832
106.104,152.931
105.931,152.981
105.759,153.081
105.586,153.131
105.414,153.23
105.241,153.28
105.069,153.38
104.896,153.43
104.724,153.529
104.551,153.629
104.379,153.729
104.206,153.778
104.034,153.878
103.862,153.928
103.689,153.978
103.517,154.028
103.344,154.077
103.172,154.127
102.999,154.227
102.827,154.277
102.654,154.327
102.482,154.376
102.309,154.426
102.137,154.476
101.964,154.526
101.792,154.576
101.619,154.626
101.447,154.676
101.274,154.775
101.102,154.825
100.93,154.875
100.757,154.925
100.585,154.975
100.412,154.975
100.24,155.024
100.067,155.024
99.8947,155.074
99.7223,155.074
99.5498,155.124
99.3773,155.174
99.2049,155.224
99.0324,155.224
98.8599,155.274
98.6875,155.274
98.515,155.323
98.3425,155.323
98.1701,155.373
97.9976,155.373
97.8251,155.423
97.6527,155.473
97.4802,155.523
97.3077,155.523
97.1353,155.573
96.9628,155.573
96.7903,155.622
96.6178,155.622
96.4454,155.672
96.2729,155.722
96.1004,155.772
95.928,155.772
95.7555,155.822
95.583,155.822
95.4106,155.872
95.2381,155.872" />
</g>
</svg>
